<svg width="86" height="49" viewBox="0 0 86 49" fill="none" xmlns="http://www.w3.org/2000/svg">
<g clip-path="url(#clip0_14_1477)">
<path d="M16.3059 45.6957C16.2784 45.6682 16.2415 45.6526 16.2031 45.6521C16.1832 45.6523 16.1635 45.6567 16.1454 45.6651C16.1272 45.6735 16.111 45.6856 16.0977 45.7008C16.0834 45.7152 16.072 45.7324 16.0642 45.7513C16.0565 45.7703 16.0525 45.7906 16.0526 45.8111L16.0751 46.8886C16.0797 46.9523 16.0609 47.0154 16.0225 47.0656C15.9993 47.0867 15.9723 47.1027 15.943 47.1129C15.9137 47.123 15.8827 47.127 15.8519 47.1246L7.29251 47.3042L16.2407 40.2467V39.808L6.20628 40.0158C6.14718 40.0199 6.0888 40.0006 6.04322 39.9619C6.02261 39.9388 6.00686 39.9117 5.99693 39.8821C5.98701 39.8525 5.98312 39.8212 5.98552 39.79L5.94539 38.9947C5.94492 38.9744 5.94046 38.9544 5.93227 38.9359C5.92408 38.9174 5.91233 38.9008 5.89772 38.887C5.87015 38.8596 5.83334 38.8439 5.79487 38.8434C5.7749 38.8432 5.75514 38.8475 5.73695 38.8559C5.71876 38.8643 5.70258 38.8767 5.68951 38.8921C5.66169 38.9218 5.64637 38.9614 5.64686 39.0024L5.70205 41.7936C5.70406 41.8344 5.72109 41.8729 5.74971 41.9014C5.77806 41.9292 5.81578 41.9448 5.85508 41.945C5.87582 41.9478 5.89691 41.9455 5.91663 41.9384C5.93635 41.9312 5.95415 41.9194 5.96857 41.9039C5.98299 41.8884 5.99364 41.8697 5.99963 41.8492C6.00563 41.8287 6.00681 41.807 6.00308 41.786L5.98302 40.7085C5.97764 40.6771 5.97954 40.645 5.98857 40.6146C5.9976 40.5841 6.01351 40.5563 6.035 40.5333C6.05649 40.5104 6.08296 40.4929 6.11228 40.4823C6.1416 40.4717 6.17294 40.4683 6.20377 40.4724L14.3317 40.3031L5.8024 46.8527L5.84253 48.8255C5.843 48.8458 5.84746 48.8659 5.85565 48.8844C5.86384 48.9029 5.87559 48.9195 5.8902 48.9333C5.91854 48.9611 5.95626 48.9767 5.99556 48.9769C6.01611 48.9782 6.0367 48.9752 6.05609 48.9681C6.07549 48.9611 6.0933 48.9501 6.10845 48.9358C6.12181 48.9196 6.13182 48.9008 6.13786 48.8805C6.14389 48.8602 6.14584 48.8389 6.14357 48.8178L6.12851 48.0174C6.12314 47.9861 6.12504 47.9539 6.13407 47.9235C6.1431 47.8931 6.15901 47.8653 6.1805 47.8423C6.20199 47.8193 6.22846 47.8018 6.25778 47.7912C6.2871 47.7807 6.31844 47.7773 6.34927 47.7814L15.8669 47.5813C15.8972 47.577 15.9281 47.58 15.957 47.59C15.986 47.6 16.0124 47.6167 16.034 47.6388C16.0556 47.6609 16.0719 47.6878 16.0817 47.7175C16.0914 47.7471 16.0943 47.7786 16.0902 47.8096L16.1052 48.61C16.1033 48.6307 16.1059 48.6516 16.1127 48.6712C16.1196 48.6908 16.1306 48.7086 16.145 48.7233C16.1594 48.738 16.1768 48.7493 16.1959 48.7563C16.2151 48.7633 16.2355 48.7659 16.2558 48.764C16.2956 48.7619 16.3333 48.7445 16.3611 48.7152C16.3756 48.7011 16.387 48.6839 16.3943 48.6649C16.4017 48.6458 16.4049 48.6254 16.4038 48.6049L16.3486 45.8111C16.3501 45.7899 16.3471 45.7685 16.3397 45.7486C16.3324 45.7286 16.3208 45.7106 16.3059 45.6957Z" fill="#231F20"/>
<path d="M17.475 28.1686C16.7965 27.4428 15.9687 26.8802 15.0517 26.5216C14.1463 26.1365 13.1688 25.9613 12.1893 26.0085C11.3217 26.0497 10.4817 26.3337 9.76101 26.8294C9.06607 27.3333 8.52765 28.0311 8.21004 28.8395C7.89243 29.6479 7.80905 30.5327 7.96986 31.3882C8.15581 32.2549 8.56954 33.0532 9.16647 33.6971C9.84003 34.4278 10.6669 34.9926 11.5848 35.3493C12.3798 35.6894 13.2316 35.8697 14.0934 35.8803C14.2113 35.8803 14.3292 35.8803 14.4446 35.8803C15.3132 35.8362 16.1537 35.5506 16.8754 35.0542C17.5699 34.5499 18.1079 33.852 18.4255 33.0438C18.7431 32.2355 18.8267 31.351 18.6666 30.4954C18.4873 29.6221 18.0748 28.8167 17.475 28.1686ZM18.1498 32.9095C17.911 33.5372 17.451 34.0507 16.8604 34.3487C16.1858 34.6764 15.4407 34.8229 14.6954 34.7746C13.7866 34.7261 12.8929 34.5169 12.0539 34.1563C11.2034 33.8215 10.4158 33.3389 9.72589 32.7299C9.15579 32.2379 8.71728 31.6059 8.45151 30.8931C8.23425 30.2598 8.2496 29.5673 8.49468 28.9447C8.73976 28.3222 9.19786 27.812 9.78358 27.5093C10.3802 27.2103 11.0384 27.0625 11.7027 27.0783H11.9535C12.86 27.1339 13.7506 27.3464 14.5876 27.7068C15.4367 28.0411 16.2239 28.5208 16.9155 29.1255C17.4892 29.6141 17.9285 30.2472 18.1899 30.9623C18.4135 31.594 18.3992 32.2881 18.1498 32.9095Z" fill="#231F20"/>
<path d="M19.685 13.4968L20.2394 12.9298C20.2533 12.9152 20.2642 12.898 20.2715 12.879C20.2789 12.8601 20.2824 12.8399 20.282 12.8195C20.2803 12.7906 20.2707 12.7628 20.2544 12.7392C20.2381 12.7155 20.2158 12.6969 20.1898 12.6855C20.1638 12.6741 20.1352 12.6703 20.1072 12.6744C20.0792 12.6786 20.0529 12.6907 20.0312 12.7092L18.1021 14.6872C18.0873 14.7011 18.0757 14.7182 18.0684 14.7373C18.061 14.7564 18.0579 14.777 18.0594 14.7975C18.0586 14.8179 18.062 14.8383 18.0693 14.8573C18.0767 14.8763 18.0878 14.8935 18.1021 14.9078C18.1147 14.9243 18.1309 14.9377 18.1494 14.9469C18.1679 14.9561 18.1881 14.9609 18.2087 14.9609C18.2292 14.9609 18.2495 14.9561 18.268 14.9469C18.2864 14.9377 18.3026 14.9243 18.3153 14.9078L19.0679 14.1382C19.0863 14.1127 19.1103 14.092 19.138 14.0777C19.1657 14.0635 19.1962 14.0561 19.2272 14.0561C19.2582 14.0561 19.2887 14.0635 19.3164 14.0777C19.344 14.092 19.368 14.1127 19.3865 14.1382L25.1287 20.0105L14.5925 18.266L13.2304 19.6616C13.2165 19.6762 13.2055 19.6934 13.1982 19.7124C13.1909 19.7313 13.1873 19.7515 13.1877 19.7719C13.1872 19.8129 13.2025 19.8526 13.2304 19.8822C13.2433 19.8988 13.2597 19.9121 13.2784 19.9213C13.297 19.9305 13.3175 19.9353 13.3382 19.9353C13.359 19.9353 13.3794 19.9305 13.3981 19.9213C13.4168 19.9121 13.4332 19.8988 13.4461 19.8822L14.0005 19.3152C14.0189 19.2898 14.0429 19.2691 14.0706 19.2548C14.0983 19.2406 14.1288 19.2331 14.1598 19.2331C14.1908 19.2331 14.2213 19.2406 14.249 19.2548C14.2767 19.2691 14.3007 19.2898 14.3191 19.3152L21.0572 26.1958C21.0821 26.2149 21.1024 26.2397 21.1163 26.2682C21.1302 26.2967 21.1375 26.3281 21.1375 26.3599C21.1375 26.3918 21.1302 26.4232 21.1163 26.4517C21.1024 26.4802 21.0821 26.505 21.0572 26.5241L20.5028 27.0911C20.4872 27.1049 20.4745 27.1218 20.4654 27.1407C20.4564 27.1597 20.4512 27.1803 20.4501 27.2014C20.4538 27.2434 20.4737 27.2821 20.5053 27.3092C20.5187 27.3238 20.5351 27.3353 20.5533 27.3428C20.5715 27.3503 20.5911 27.3537 20.6107 27.3528C20.6307 27.3538 20.6506 27.3504 20.6692 27.3429C20.6878 27.3354 20.7046 27.3239 20.7185 27.3092L22.6477 25.3338C22.6621 25.3194 22.6735 25.3023 22.6814 25.2833C22.6892 25.2644 22.6932 25.244 22.6932 25.2234C22.6932 25.2029 22.6892 25.1825 22.6814 25.1636C22.6735 25.1446 22.6621 25.1275 22.6477 25.1131C22.6339 25.0989 22.6175 25.0877 22.5994 25.0802C22.5813 25.0727 22.5618 25.069 22.5423 25.0695C22.5224 25.0691 22.5026 25.0728 22.4841 25.0803C22.4656 25.0878 22.4487 25.0989 22.4344 25.1131L21.6818 25.8828C21.6632 25.9083 21.6389 25.9289 21.611 25.9432C21.5832 25.9574 21.5525 25.9649 21.5213 25.9649C21.4901 25.9649 21.4594 25.9574 21.4315 25.9432C21.4037 25.9289 21.3794 25.9083 21.3607 25.8828L15.3025 19.6949L26.4808 21.3984L26.7743 21.1008L19.685 13.8252C19.6601 13.8061 19.6398 13.7813 19.6259 13.7528C19.612 13.7243 19.6047 13.6928 19.6047 13.661C19.6047 13.6291 19.612 13.5977 19.6259 13.5692C19.6398 13.5407 19.6601 13.5159 19.685 13.4968Z" fill="#231F20"/>
<path d="M33.9941 8.13247L32.8351 6.21095V6.19812L25.7508 9.14325C25.7153 9.16109 25.6869 9.19102 25.6705 9.22791C25.6625 9.2465 25.6584 9.2666 25.6584 9.28692C25.6584 9.30723 25.6625 9.32733 25.6705 9.34592C25.6767 9.36592 25.6867 9.38443 25.7001 9.40031C25.7135 9.41619 25.7299 9.42911 25.7483 9.43828C25.7674 9.44646 25.7878 9.45068 25.8085 9.45068C25.8292 9.45068 25.8497 9.44646 25.8687 9.43828L26.5962 9.13555C26.6228 9.11942 26.6527 9.10987 26.6836 9.10768C26.7144 9.10549 26.7454 9.11071 26.7739 9.12293C26.8024 9.13514 26.8277 9.15402 26.8479 9.17804C26.868 9.20206 26.8823 9.23056 26.8897 9.26126L30.4795 18.2788C30.4958 18.3061 30.5056 18.3369 30.508 18.3688C30.5104 18.4006 30.5054 18.4326 30.4934 18.4622C30.4814 18.4917 30.4628 18.5179 30.439 18.5386C30.4152 18.5594 30.387 18.5741 30.3566 18.5815L29.6291 18.8842C29.59 18.8977 29.5576 18.9262 29.5388 18.9638C29.5302 18.9831 29.5258 19.0041 29.5258 19.0253C29.5258 19.0466 29.5302 19.0676 29.5388 19.0869C29.546 19.1059 29.5571 19.1231 29.5714 19.1372C29.5857 19.1514 29.6028 19.1622 29.6216 19.169C29.6414 19.1738 29.662 19.1738 29.6818 19.169C29.7 19.1727 29.7188 19.1727 29.737 19.169L33.0182 17.8042C33.0368 17.7968 33.0536 17.7855 33.0674 17.7709C33.0813 17.7562 33.0919 17.7387 33.0985 17.7195C33.1065 17.7009 33.1107 17.6808 33.1107 17.6605C33.1107 17.6402 33.1065 17.6201 33.0985 17.6015C33.0911 17.5824 33.0799 17.565 33.0657 17.5505C33.0514 17.5359 33.0344 17.5245 33.0157 17.5169C32.9976 17.5087 32.9779 17.5044 32.958 17.5044C32.9382 17.5044 32.9185 17.5087 32.9003 17.5169L31.7991 17.9761C31.7705 17.9885 31.7398 17.9949 31.7088 17.9949C31.6777 17.9949 31.647 17.9885 31.6184 17.9761C31.5911 17.9621 31.5668 17.9426 31.547 17.9188C31.5272 17.895 31.5122 17.8674 31.5031 17.8375L29.4836 12.7503L31.3826 11.9575C31.6262 11.8461 31.8911 11.7918 32.1578 11.7985C32.4004 11.8276 32.6243 11.9462 32.7875 12.132C33.0458 12.4284 33.2558 12.7654 33.4096 13.13C33.4319 13.1619 33.4611 13.1883 33.4949 13.2069C33.5098 13.2155 33.5267 13.2199 33.5438 13.2199C33.5609 13.2199 33.5778 13.2155 33.5927 13.2069C33.6084 13.2001 33.6222 13.1895 33.6331 13.1761C33.644 13.1628 33.6517 13.1469 33.6554 13.13C33.6692 13.0936 33.6692 13.0534 33.6554 13.0171L32.213 9.41519C32.1989 9.37867 32.1733 9.34798 32.1402 9.32796C32.1245 9.32058 32.1074 9.31676 32.0901 9.31676C32.0727 9.31676 32.0556 9.32058 32.0399 9.32796C32.0106 9.34216 31.9874 9.36679 31.9747 9.39723C31.9643 9.43498 31.9643 9.47493 31.9747 9.51268C32.0852 9.8687 32.1427 10.2397 32.1453 10.6133C32.1448 10.8489 32.0651 11.0771 31.9195 11.2597C31.7399 11.4474 31.5212 11.5912 31.2798 11.6805L29.3783 12.4732L27.8455 8.62503L30.748 7.41671C31.0774 7.26813 31.4317 7.1854 31.7915 7.17299H31.8116C32.1388 7.18286 32.4572 7.28399 32.7323 7.46545C33.1097 7.7197 33.4559 8.01944 33.7633 8.35823C33.7862 8.38787 33.8181 8.40896 33.8539 8.41823C33.8897 8.42751 33.9275 8.42445 33.9615 8.40953C33.9806 8.40282 33.9977 8.39131 34.0113 8.37607C34.0248 8.36083 34.0345 8.34234 34.0393 8.32231C34.0486 8.27626 34.0424 8.22832 34.0217 8.18634L33.9941 8.13247Z" fill="#231F20"/>
<path d="M41.7808 15.5004L41.0006 15.5825C40.9702 15.5884 40.9389 15.5877 40.9087 15.5807C40.8785 15.5736 40.85 15.5603 40.825 15.5415C40.8023 15.5203 40.7842 15.4946 40.7717 15.4659C40.7591 15.4372 40.7525 15.4061 40.7523 15.3747L39.784 5.69017C39.7756 5.65926 39.7745 5.62676 39.7808 5.59535C39.7871 5.56393 39.8006 5.53449 39.8202 5.50944C39.8398 5.4844 39.8649 5.46447 39.8935 5.45129C39.9221 5.43811 39.9533 5.43205 39.9847 5.43362L40.7648 5.35153C40.805 5.34708 40.8419 5.32684 40.8677 5.29509C40.8802 5.27945 40.8896 5.26141 40.8952 5.24202C40.9008 5.22264 40.9025 5.2023 40.9003 5.18221C40.8987 5.16173 40.893 5.14181 40.8835 5.12371C40.874 5.10561 40.8609 5.08971 40.8451 5.07703C40.8301 5.06367 40.8125 5.05377 40.7935 5.04802C40.7744 5.04226 40.7544 5.04078 40.7347 5.04368L37.614 5.36949C37.5943 5.37083 37.5751 5.37658 37.5577 5.38633C37.5404 5.39608 37.5254 5.4096 37.5137 5.42593C37.5003 5.44111 37.4903 5.45903 37.4842 5.47849C37.4782 5.49796 37.4762 5.51852 37.4786 5.53881C37.4805 5.58163 37.4984 5.62205 37.5287 5.65169C37.5451 5.66412 37.5638 5.67284 37.5837 5.67727C37.6036 5.68169 37.6242 5.68172 37.6441 5.67734L38.4243 5.59781C38.4546 5.59144 38.4858 5.59158 38.5161 5.5982C38.5463 5.60482 38.5748 5.6178 38.5999 5.63629C38.6223 5.65775 38.6402 5.68355 38.6527 5.71218C38.6652 5.74082 38.672 5.7717 38.6727 5.80305L39.636 15.4902C39.6471 15.5528 39.6335 15.6173 39.5983 15.6697C39.5773 15.6926 39.5521 15.711 39.5241 15.7237C39.4961 15.7365 39.4659 15.7434 39.4353 15.7441L38.6551 15.8262C38.6343 15.8252 38.6136 15.8291 38.5946 15.8378C38.5755 15.8464 38.5588 15.8595 38.5456 15.8759C38.5324 15.8924 38.5232 15.9118 38.5187 15.9326C38.5142 15.9534 38.5145 15.9749 38.5196 15.9956C38.5209 16.0161 38.5265 16.0361 38.536 16.0543C38.5456 16.0724 38.5588 16.0883 38.5748 16.1007C38.6008 16.1233 38.6336 16.136 38.6676 16.1367H38.6852L41.8059 15.8083C41.8256 15.8069 41.8449 15.8012 41.8622 15.7914C41.8795 15.7817 41.8946 15.7682 41.9062 15.7518C41.9196 15.7367 41.9297 15.7187 41.9357 15.6993C41.9418 15.6798 41.9437 15.6593 41.9414 15.639C41.9394 15.6189 41.9335 15.5995 41.9241 15.5819C41.9146 15.5642 41.9017 15.5487 41.8862 15.5363C41.8718 15.5235 41.8551 15.5137 41.837 15.5075C41.819 15.5013 41.7998 15.4989 41.7808 15.5004Z" fill="#231F20"/>
<path d="M54.1182 6.50083C54.096 6.49651 54.073 6.49999 54.0529 6.5107C54.0329 6.52141 54.017 6.53872 54.0078 6.55983L53.644 7.28072C53.2821 6.86109 52.8591 6.5011 52.3897 6.2135C51.8755 5.91334 51.3146 5.70593 50.7315 5.60035C49.9204 5.43091 49.078 5.52047 48.3183 5.8569C47.5308 6.217 46.8537 6.7889 46.3591 7.51161C45.7917 8.33263 45.4088 9.27175 45.2377 10.2618C45.033 11.2435 45.0475 12.2599 45.2804 13.2351C45.4856 14.0995 45.9196 14.8894 46.5347 15.5184C47.1454 16.1231 47.9198 16.5262 48.7573 16.6754C49.0581 16.7358 49.3639 16.7668 49.6704 16.7677C50.0844 16.7692 50.4962 16.7069 50.8921 16.583C51.5842 16.3492 52.202 15.9291 52.6807 15.367C52.7029 15.3347 52.7147 15.2962 52.7147 15.2567C52.7147 15.2172 52.7029 15.1787 52.6807 15.1464C52.6657 15.1287 52.6466 15.1152 52.6251 15.1071C52.6036 15.099 52.5804 15.0966 52.5578 15.1002C52.5055 15.1091 52.4568 15.1332 52.4173 15.1695C51.9754 15.6873 51.4052 16.0737 50.7667 16.288C50.1796 16.4827 49.554 16.5224 48.9479 16.4034C48.2902 16.277 47.699 15.9127 47.2822 15.3773C46.8188 14.7609 46.5181 14.0329 46.4092 13.2633C46.2668 12.3434 46.2889 11.4046 46.4744 10.4927C46.6337 9.57948 46.9514 8.70281 47.4127 7.90412C47.7894 7.23414 48.3252 6.6721 48.9705 6.26994C49.5192 5.93245 50.1697 5.81199 50.7993 5.9313C51.1947 5.9905 51.5735 6.13417 51.9111 6.35296C52.2486 6.57175 52.5374 6.86076 52.7585 7.20119C53.1724 7.87077 53.3957 8.79946 53.4233 9.95905C53.4224 10.0076 53.4364 10.0551 53.4634 10.095C53.4744 10.1137 53.4889 10.1299 53.5062 10.1427C53.5234 10.1555 53.543 10.1646 53.5638 10.1694C53.5834 10.1735 53.6038 10.1726 53.623 10.1668C53.6422 10.161 53.6598 10.1504 53.6741 10.1361C53.7082 10.0994 53.7301 10.0528 53.7369 10.0027L54.1859 6.6291C54.1887 6.61451 54.1886 6.59948 54.1856 6.58493C54.1826 6.57038 54.1767 6.55661 54.1683 6.54444C54.1576 6.52396 54.1397 6.50839 54.1182 6.50083Z" fill="#231F20"/>
<path d="M58.9522 20.7801L58.1771 20.267C58.1488 20.2537 58.124 20.2338 58.1045 20.209C58.085 20.1842 58.0715 20.1551 58.0649 20.124C58.0583 20.0929 58.0589 20.0606 58.0666 20.0298C58.0744 19.999 58.089 19.9704 58.1093 19.9463L63.3423 11.5445L64.8474 12.5271C65.1285 12.6898 65.3709 12.9141 65.5574 13.1838C65.6758 13.3971 65.7267 13.6427 65.7029 13.8867C65.6516 14.3118 65.5677 14.7322 65.452 15.1438C65.4434 15.1884 65.4479 15.2345 65.4649 15.2765C65.4818 15.3185 65.5105 15.3544 65.5473 15.3798C65.558 15.388 65.5701 15.3939 65.5831 15.397C65.5961 15.4001 65.6095 15.4003 65.6226 15.3978C65.6692 15.3803 65.7077 15.3455 65.7305 15.3003C65.7541 15.2647 65.7726 15.2258 65.7857 15.1849L66.5508 13.289L59.5141 8.68402L58.1469 10.2002C58.1167 10.2307 58.0906 10.2653 58.0692 10.3028C58.0532 10.3222 58.0412 10.3447 58.0339 10.369C58.0266 10.3932 58.0241 10.4187 58.0265 10.4439C58.0339 10.4693 58.0499 10.4912 58.0717 10.5055C58.1102 10.5287 58.1544 10.5398 58.199 10.5375C58.2436 10.5352 58.2865 10.5196 58.3226 10.4927C58.6377 10.2146 58.9732 9.96164 59.326 9.73585C59.5325 9.61104 59.7719 9.55542 60.0108 9.5768C60.3294 9.63511 60.6312 9.76573 60.8939 9.95905L62.399 10.939L57.1561 19.3383C57.1434 19.3676 57.1242 19.3934 57.1 19.4137C57.0757 19.4339 57.0471 19.448 57.0165 19.4547C56.9859 19.4615 56.9542 19.4607 56.924 19.4525C56.8937 19.4443 56.8658 19.4289 56.8425 19.4076L56.0698 18.8945C56.0534 18.8813 56.0343 18.8719 56.0139 18.867C55.9936 18.8621 55.9724 18.8619 55.9519 18.8663C55.9128 18.8779 55.8795 18.9046 55.8591 18.9407C55.8483 18.958 55.841 18.9774 55.8376 18.9976C55.8341 19.0179 55.8346 19.0386 55.839 19.0587C55.8482 19.0983 55.8714 19.1331 55.9043 19.1562L58.7766 21.0366C58.7999 21.0516 58.8269 21.0596 58.8544 21.0597H58.892C58.9308 21.0504 58.9647 21.0266 58.9873 20.993C59.0082 20.9576 59.0145 20.9152 59.0049 20.875C59 20.8376 58.9811 20.8036 58.9522 20.7801Z" fill="#231F20"/>
<path d="M63.834 25.5493C63.8118 25.5279 63.7941 25.502 63.782 25.4733C63.7699 25.4446 63.7637 25.4137 63.7638 25.3825C63.7673 25.3511 63.7772 25.3207 63.7928 25.2934C63.8083 25.266 63.8292 25.2422 63.8541 25.2234L71.0161 18.8098C71.0361 18.7855 71.0614 18.7663 71.0899 18.7537C71.1185 18.7412 71.1495 18.7357 71.1805 18.7377C71.2115 18.7397 71.2416 18.7491 71.2684 18.7652C71.2952 18.7813 71.3179 18.8036 71.3347 18.8304L71.8515 19.4358C71.865 19.4507 71.8812 19.4628 71.8993 19.4711C71.9174 19.4795 71.937 19.4841 71.9569 19.4845C71.9767 19.4871 71.9969 19.4852 72.0159 19.479C72.035 19.4728 72.0525 19.4624 72.0672 19.4486C72.0968 19.4217 72.1149 19.3839 72.1174 19.3434C72.1191 19.323 72.1166 19.3024 72.1101 19.283C72.1037 19.2636 72.0933 19.2457 72.0798 19.2306L70.0127 16.8165C70 16.801 69.9843 16.7885 69.9666 16.7796C69.9489 16.7708 69.9295 16.7659 69.9098 16.7652C69.8792 16.7608 69.8479 16.7664 69.8205 16.7812C69.7931 16.7959 69.7709 16.8191 69.7571 16.8474C69.7432 16.8757 69.7384 16.9078 69.7433 16.9391C69.7482 16.9703 69.7626 16.9992 69.7844 17.0217L70.3012 17.6246C70.3235 17.6465 70.3412 17.6728 70.3533 17.7019C70.3654 17.731 70.3715 17.7623 70.3714 17.7939C70.3676 17.8249 70.3577 17.8548 70.3421 17.8817C70.3266 17.9087 70.3058 17.932 70.2811 17.9504L63.119 24.3717C63.0994 24.3966 63.0742 24.4163 63.0456 24.4291C63.017 24.442 62.9858 24.4477 62.9546 24.4456C62.9234 24.4436 62.8931 24.434 62.8663 24.4176C62.8395 24.4011 62.8169 24.3784 62.8004 24.3512L62.2837 23.7483C62.2713 23.7316 62.2559 23.7176 62.2382 23.7071C62.2206 23.6965 62.2011 23.6896 62.1808 23.6867C62.141 23.6885 62.1031 23.7051 62.0745 23.7335C62.0458 23.7619 62.0283 23.8 62.0253 23.8407C62.0236 23.8611 62.0261 23.8817 62.0326 23.9011C62.039 23.9206 62.0494 23.9384 62.0629 23.9536L64.13 26.3651C64.1427 26.3805 64.1584 26.3931 64.1761 26.4019C64.1938 26.4108 64.2132 26.4157 64.2329 26.4164H64.2454C64.2817 26.4169 64.3167 26.4032 64.3432 26.3779C64.3582 26.3643 64.3703 26.3477 64.379 26.3292C64.3876 26.3107 64.3925 26.2906 64.3934 26.2701C64.3949 26.2503 64.3926 26.2303 64.3866 26.2114C64.3806 26.1925 64.371 26.175 64.3583 26.1598L63.834 25.5493Z" fill="#231F20"/>
<path d="M71.6558 35.3621C72.558 35.3483 73.4484 35.1503 74.2748 34.7797C75.1846 34.4047 76.002 33.8282 76.668 33.0917C77.2552 32.4375 77.6553 31.6307 77.8244 30.7597C77.9705 29.9015 77.8719 29.0185 77.5405 28.216C77.2091 27.4135 76.6589 26.7256 75.9555 26.2342C75.2228 25.7495 74.3744 25.4789 73.5021 25.4518C72.522 25.4389 71.55 25.6337 70.6472 26.024C69.7444 26.4143 68.9304 26.9917 68.2566 27.7196C67.6711 28.3758 67.2721 29.183 67.1027 30.0542C66.958 30.9143 67.0588 31.7988 67.3929 32.6018C67.727 33.4048 68.2803 34.0924 68.9866 34.5822C69.7161 35.0621 70.5604 35.3283 71.4275 35.3518L71.6558 35.3621ZM68.9866 33.887C68.3955 33.5948 67.9286 33.0926 67.6729 32.4742C67.4171 31.8559 67.3901 31.1635 67.5969 30.5262C67.8533 29.8071 68.285 29.1669 68.8512 28.6663C70.234 27.4413 71.9603 26.6951 73.7831 26.5344H74.1042C74.7418 26.5213 75.3739 26.6563 75.953 26.9295C76.5437 27.2221 77.0104 27.7243 77.266 28.3425C77.5217 28.9608 77.549 29.6529 77.3428 30.2902C77.0898 31.0111 76.6575 31.6522 76.0885 32.1502C74.7017 33.3686 72.9775 34.1139 71.1566 34.282C70.412 34.3454 69.6641 34.2092 68.9866 33.887Z" fill="#231F20"/>
<path d="M80.3155 38.9076C80.288 38.8778 80.2502 38.8603 80.2101 38.8588C80.1899 38.8568 80.1695 38.8594 80.1503 38.8665C80.1312 38.8735 80.1138 38.8848 80.0994 38.8995C80.085 38.9142 80.074 38.932 80.0671 38.9516C80.0602 38.9711 80.0577 38.992 80.0596 39.0127L80.0446 39.8132C80.0464 39.8769 80.025 39.9391 79.9844 39.9876C79.962 40.0071 79.9361 40.0219 79.9081 40.0312C79.8801 40.0404 79.8506 40.0439 79.8213 40.0415L70.3037 39.8362C70.2413 39.8381 70.1805 39.8162 70.1331 39.7747C70.0941 39.7248 70.0761 39.6611 70.0829 39.5977L70.098 38.7972C70.1011 38.7763 70.0996 38.7548 70.0934 38.7346C70.0872 38.7143 70.0765 38.6958 70.0622 38.6805C70.0479 38.6651 70.0304 38.6533 70.0109 38.646C69.9914 38.6386 69.9706 38.636 69.95 38.6382C69.9107 38.6383 69.8729 38.654 69.8446 38.6818C69.83 38.6956 69.8182 38.7122 69.81 38.7307C69.8019 38.7492 69.7974 38.7692 69.7969 38.7895L69.7392 41.5833C69.7397 41.6242 69.7549 41.6634 69.7819 41.6936C69.7955 41.7082 69.8118 41.7198 69.8299 41.7278C69.848 41.7357 69.8675 41.7398 69.8872 41.7398C69.9064 41.7401 69.9254 41.7364 69.9431 41.7289C69.9608 41.7214 69.9768 41.7102 69.9901 41.6962C70.0049 41.6826 70.0168 41.666 70.025 41.6475C70.0333 41.6289 70.0376 41.6088 70.0378 41.5884L70.0603 40.511C70.0564 40.4793 70.0598 40.4472 70.0701 40.4172C70.0805 40.3871 70.0975 40.3599 70.1199 40.3378C70.1423 40.3156 70.1694 40.2991 70.1992 40.2895C70.2289 40.28 70.2604 40.2776 70.2911 40.2826L78.853 40.4673L69.6263 47.1375V47.5608V47.5788L79.6733 47.7943C79.704 47.7907 79.7351 47.7945 79.7642 47.8052C79.7933 47.816 79.8195 47.8335 79.8409 47.8563C79.8622 47.8792 79.8782 47.9068 79.8874 47.9369C79.8966 47.9671 79.8989 47.999 79.8941 48.0303L79.879 48.8333C79.8779 48.8537 79.8811 48.8742 79.8884 48.8932C79.8958 48.9123 79.9071 48.9295 79.9217 48.9436C79.9495 48.9728 79.9871 48.9903 80.027 48.9923C80.0663 48.9921 80.104 48.9765 80.1324 48.9487C80.1612 48.9193 80.1782 48.88 80.18 48.8384L80.2377 46.0472C80.2378 46.0266 80.2338 46.0063 80.2261 45.9874C80.2183 45.9684 80.2069 45.9512 80.1926 45.9369C80.1793 45.9217 80.1631 45.9095 80.1449 45.9011C80.1268 45.8927 80.1071 45.8883 80.0872 45.8881C80.0676 45.8868 80.048 45.8895 80.0294 45.8961C80.0109 45.9027 79.9939 45.9131 79.9794 45.9266C79.9652 45.9414 79.9544 45.9592 79.9474 45.9786C79.9405 45.9981 79.9377 46.0188 79.9392 46.0395L79.9166 47.1195C79.9197 47.1827 79.898 47.2446 79.8564 47.2914C79.8329 47.3124 79.8054 47.328 79.7755 47.3373C79.7457 47.3466 79.7143 47.3493 79.6833 47.3453L71.558 47.1708L80.3381 40.9881L80.3782 39.0153C80.3764 38.9937 80.3698 38.9727 80.359 38.9541C80.3481 38.9354 80.3333 38.9195 80.3155 38.9076Z" fill="#231F20"/>
<path d="M0.644711 48.923C0.460587 47.2802 0.36762 45.6279 0.366256 43.9743C0.366256 19.9335 19.4919 0.374555 43 0.374555C66.5081 0.374555 85.6463 19.9335 85.6463 43.9871C85.6449 45.6408 85.5519 47.293 85.3678 48.9359H85.7391C85.9203 47.2928 86.0116 45.6406 86.0125 43.9871C86 19.7257 66.7113 0 43 0C19.2887 0 0 19.7257 0 43.9743C0.000932119 45.6278 0.0922204 47.28 0.273438 48.923H0.644711Z" fill="#231F20"/>
</g>
<defs>
<clipPath id="clip0_14_1477">
<rect width="86" height="49" fill="white"/>
</clipPath>
</defs>
</svg>
