<svg width="478" height="306" viewBox="0 0 478 306" fill="none" xmlns="http://www.w3.org/2000/svg">
<g clip-path="url(#clip0_54_1178)">
<path d="M94.6983 305.061L93.4287 305.036C93.9197 290.92 95.4259 276.858 97.9355 262.958C103.425 233.198 112.554 213.653 125.069 204.867L125.798 205.906C96.5642 226.431 94.7132 304.277 94.6983 305.061Z" fill="#2F2E41"/>
<path d="M110.568 304.758L109.299 304.733C109.326 303.327 110.12 270.191 123.164 261.032L123.894 262.071C111.375 270.861 110.575 304.42 110.568 304.758Z" fill="#2F2E41"/>
<path d="M133.02 206.021C136.526 206.021 139.368 203.179 139.368 199.673C139.368 196.167 136.526 193.325 133.02 193.325C129.514 193.325 126.672 196.167 126.672 199.673C126.672 203.179 129.514 206.021 133.02 206.021Z" fill="#6C63FF"/>
<path d="M129.877 260.613C133.383 260.613 136.225 257.771 136.225 254.265C136.225 250.759 133.383 247.917 129.877 247.917C126.371 247.917 123.529 250.759 123.529 254.265C123.529 257.771 126.371 260.613 129.877 260.613Z" fill="#6C63FF"/>
<path d="M107.609 209.826C108.802 217.446 105.693 224.262 105.693 224.262C105.693 224.262 100.649 218.723 99.4562 211.103C98.2632 203.483 101.373 196.667 101.373 196.667C101.373 196.667 106.416 202.206 107.609 209.826Z" fill="#2F2E41"/>
<path d="M128.359 228.333C121.064 230.835 113.811 228.961 113.811 228.961C113.811 228.961 118.386 223.03 125.682 220.527C132.977 218.025 140.23 219.899 140.23 219.899C140.23 219.899 135.655 225.83 128.359 228.333Z" fill="#2F2E41"/>
<path d="M128.593 276.68C125.291 277.717 121.775 277.869 118.396 277.12C120.542 274.388 123.431 272.335 126.717 271.208C130.002 270.081 133.544 269.928 136.914 270.768C134.706 273.433 131.837 275.472 128.593 276.68Z" fill="#2F2E41"/>
<path d="M385.112 296.737H376.77L372.802 264.562L385.113 264.563L385.112 296.737Z" fill="#9E616A"/>
<path d="M387.239 304.822L360.342 304.821V304.481C360.342 301.705 361.446 299.042 363.409 297.079C365.372 295.116 368.035 294.013 370.811 294.013L387.239 294.013L387.239 304.822Z" fill="#2F2E41"/>
<path d="M333.629 296.737H325.287L321.319 264.562L333.63 264.563L333.629 296.737Z" fill="#9E616A"/>
<path d="M335.756 304.822L308.859 304.821V304.481C308.86 301.705 309.963 299.042 311.926 297.079C313.889 295.116 316.552 294.013 319.328 294.013H319.329L335.756 294.013L335.756 304.822Z" fill="#2F2E41"/>
<path d="M312.819 116.559L301.266 114.774L297.534 120.781L257.369 131.02L257.478 131.573C256.342 130.387 254.851 129.604 253.23 129.341C251.609 129.078 249.947 129.35 248.494 130.117C247.042 130.883 245.879 132.102 245.181 133.588C244.483 135.074 244.288 136.748 244.626 138.355C244.963 139.962 245.815 141.415 247.053 142.494C248.29 143.574 249.846 144.221 251.484 144.338C253.122 144.454 254.753 144.034 256.131 143.141C257.509 142.248 258.558 140.93 259.121 139.387L307.761 129.243L312.819 116.559Z" fill="#9E616A"/>
<path d="M428.203 109.405C427.252 109.406 426.309 109.587 425.425 109.939L425.656 109.537L374.591 83.142L367.629 94.3968L420.72 117.964C420.913 119.402 421.516 120.754 422.458 121.859C423.399 122.963 424.639 123.773 426.028 124.192C427.418 124.61 428.898 124.619 430.293 124.219C431.688 123.818 432.938 123.023 433.893 121.931C434.848 120.838 435.469 119.494 435.68 118.058C435.891 116.622 435.684 115.156 435.084 113.835C434.484 112.513 433.515 111.393 432.295 110.607C431.075 109.822 429.654 109.404 428.203 109.405Z" fill="#9E616A"/>
<path d="M347.645 40.5643C349.64 28.266 341.289 16.6784 328.99 14.6826C316.692 12.6869 305.104 21.0388 303.109 33.3371C301.113 45.6354 309.465 57.223 321.763 59.2187C334.061 61.2144 345.649 52.8626 347.645 40.5643Z" fill="#2F2E41"/>
<path d="M325.182 59.3155C333.13 59.3155 339.574 52.8723 339.574 44.9242C339.574 36.9761 333.13 30.5329 325.182 30.5329C317.234 30.5329 310.791 36.9761 310.791 44.9242C310.791 52.8723 317.234 59.3155 325.182 59.3155Z" fill="#A0616A"/>
<path d="M325.376 40.0623C333.969 40.0623 340.935 35.8829 340.935 30.7274C340.935 25.5719 333.969 21.3925 325.376 21.3925C316.784 21.3925 309.818 25.5719 309.818 30.7274C309.818 35.8829 316.784 40.0623 325.376 40.0623Z" fill="#2F2E41"/>
<path d="M326.933 23.7262C332.088 23.7262 336.267 19.5468 336.267 14.3913C336.267 9.23577 332.088 5.0564 326.933 5.0564C321.777 5.0564 317.598 9.23577 317.598 14.3913C317.598 19.5468 321.777 23.7262 326.933 23.7262Z" fill="#2F2E41"/>
<path d="M314.486 9.33491C314.486 7.02752 315.341 4.80192 316.885 3.08745C318.429 1.37297 320.554 0.291105 322.849 0.0505358C322.526 0.0169931 322.201 0.000144252 321.876 6.10352e-05C319.402 0.0029461 317.031 0.987709 315.283 2.73803C313.534 4.48835 312.552 6.86107 312.552 9.33495C312.552 11.8088 313.534 14.1816 315.283 15.9319C317.031 17.6822 319.402 18.667 321.876 18.6698C322.201 18.6698 322.526 18.6529 322.849 18.6194C320.554 18.3788 318.429 17.2969 316.885 15.5824C315.341 13.868 314.486 11.6423 314.486 9.33491Z" fill="#2F2E41"/>
<path d="M317.7 80.6516L318.861 69.4941C318.861 69.4941 334.607 59.1169 339.959 65.2501L371.945 119.978C371.945 119.978 391.829 127.046 391.126 154.039L390.175 284.515L367.629 286.987L353.938 185.261L341.567 290.653L315.319 289.831L317.68 220.4L330.197 153.095L330.077 130.761L324.564 121.748C324.564 121.748 314.466 117.691 314.184 106.227L313.963 90.1125L317.7 80.6516Z" fill="#2F2E41"/>
<path d="M334.211 68.3132L334.522 63.0831C334.522 63.0831 382.152 75.6342 378.373 84.6083C374.595 93.5823 367.51 96.4163 367.51 96.4163L340.115 85.5529L334.211 68.3132Z" fill="#2F2E41"/>
<path d="M321.765 81.3279L318.181 77.506C318.181 77.506 289.595 117.618 298.239 122.1C306.884 126.582 314.142 124.229 314.142 124.229L328.253 98.3564L321.765 81.3279Z" fill="#2F2E41"/>
<path d="M264.547 211.94L443.915 176.135L428.925 101.042L249.557 136.847L264.547 211.94Z" fill="white"/>
<path d="M445.383 177.115L263.568 213.408L248.089 135.867L429.905 99.5737L445.383 177.115ZM265.527 210.472L442.447 175.156L427.946 102.509L251.025 137.826L265.527 210.472Z" fill="#E4E4E4"/>
<path d="M416.671 125.099L271.511 154.076L272.266 157.86L417.426 128.884L416.671 125.099Z" fill="#E4E4E4"/>
<path d="M419.613 139.836L274.453 168.812L275.208 172.597L420.368 143.621L419.613 139.836Z" fill="#E4E4E4"/>
<path d="M422.571 154.658L277.411 183.634L278.167 187.419L423.327 158.443L422.571 154.658Z" fill="#E4E4E4"/>
<path d="M347.314 148.618L342.237 149.631C341.866 149.705 341.481 149.629 341.167 149.419C340.852 149.209 340.634 148.883 340.559 148.512L338.159 136.487C338.086 136.117 338.162 135.732 338.372 135.417C338.582 135.103 338.908 134.884 339.279 134.81L344.355 133.796C344.726 133.723 345.111 133.799 345.426 134.009C345.74 134.219 345.959 134.545 346.033 134.916L348.434 146.94C348.507 147.311 348.431 147.696 348.221 148.011C348.011 148.325 347.685 148.544 347.314 148.618Z" fill="#6C63FF"/>
<path d="M405.143 152.398L400.066 153.412C399.695 153.485 399.31 153.409 398.995 153.199C398.681 152.989 398.463 152.663 398.388 152.292L395.988 140.268C395.914 139.897 395.991 139.512 396.201 139.197C396.41 138.883 396.736 138.664 397.107 138.59L402.184 137.577C402.555 137.503 402.94 137.58 403.254 137.789C403.569 137.999 403.787 138.325 403.862 138.696L406.262 150.721C406.336 151.092 406.259 151.476 406.049 151.791C405.84 152.106 405.513 152.324 405.143 152.398Z" fill="#6C63FF"/>
<path d="M373.826 174.062L368.749 175.076C368.378 175.149 367.993 175.073 367.679 174.863C367.364 174.653 367.146 174.327 367.071 173.956L364.671 161.932C364.597 161.561 364.674 161.176 364.884 160.861C365.094 160.547 365.42 160.328 365.79 160.254L370.867 159.24C371.238 159.167 371.623 159.243 371.938 159.453C372.252 159.663 372.471 159.989 372.545 160.36L374.945 172.384C375.019 172.755 374.942 173.14 374.732 173.455C374.523 173.769 374.197 173.988 373.826 174.062Z" fill="#6C63FF"/>
<path d="M477.365 305.305H0.634794C0.466436 305.305 0.304973 305.238 0.185926 305.119C0.0668794 305 0 304.839 0 304.67C0 304.502 0.0668794 304.34 0.185926 304.221C0.304973 304.102 0.466436 304.035 0.634794 304.035H477.365C477.534 304.035 477.695 304.102 477.814 304.221C477.933 304.34 478 304.502 478 304.67C478 304.839 477.933 305 477.814 305.119C477.695 305.238 477.534 305.305 477.365 305.305Z" fill="#CACACA"/>
</g>
<defs>
<clipPath id="clip0_54_1178">
<rect width="478" height="305.305" fill="white"/>
</clipPath>
</defs>
</svg>
