<svg width="60" height="61" viewBox="0 0 60 61" fill="none" xmlns="http://www.w3.org/2000/svg">
<path d="M8.18182 33.3181L11.3636 33.2272V33.6818C11.3636 33.8636 11.5455 34.0454 11.7273 34.0454C11.8182 34.0454 11.9091 34.0454 12 33.9545C12.0909 33.8636 12.0909 33.7727 12.0909 33.6818V33.409V31.7727C12.0909 31.6818 12.0909 31.6818 12 31.5909C11.9091 31.5 11.8182 31.5 11.7273 31.5C11.7273 31.5 11.7273 31.5 11.6364 31.5C11.5455 31.5 11.5455 31.5 11.5455 31.5909C11.4546 31.6818 11.4546 31.7727 11.4546 31.8636V32.5L6.36364 32.5909L11.9091 28.3181L12 28.2272V27.7727C12 27.6818 11.9091 27.6818 11.9091 27.6818L4.81819 27.7727V27.3181C4.81819 27.2272 4.81819 27.2272 4.72728 27.1363C4.63637 27.0454 4.54546 27.0454 4.45455 27.0454C4.45455 27.0454 4.45455 27.0454 4.36364 27.0454C4.27273 27.0454 4.27273 27.0454 4.27273 27.1363C4.18182 27.2272 4.18182 27.3181 4.18182 27.409V29.3181V29.409C4.18182 29.5 4.18182 29.5 4.27273 29.5C4.36364 29.5909 4.45455 29.5909 4.54546 29.5909C4.72728 29.5909 4.9091 29.409 4.9091 29.2272V28.5909L9.72728 28.5L4.45455 32.5L4.36364 32.5909V33.9545C4.36364 34.0454 4.36364 34.1363 4.45455 34.2272C4.54546 34.3181 4.63637 34.3181 4.72728 34.3181C4.81819 34.3181 4.9091 34.2272 5.00001 34.2272C5.00001 34.2272 5.09091 34.1363 5.09091 34.0454V33.5909L8.18182 33.3181Z" fill="#231F20"/>
<path d="M11.4546 42.4091C11.5455 42.3182 11.6364 42.3182 11.8182 42.2273C12 42.1364 12.1818 42.0455 12.2727 41.8636C12.4546 41.7727 12.5455 41.5909 12.7273 41.5C12.8182 41.4091 12.8182 41.4091 12.9091 41.3182C13.3637 40.7727 13.6364 40.2273 13.7273 39.6818C13.8182 39.0455 13.7273 38.4091 13.5455 37.8636C13.4546 37.5909 13.2727 37.3182 13.0909 37.0455C12.9091 36.7727 12.6364 36.5909 12.3637 36.4091C11.8182 36.0455 11.2727 35.8636 10.5455 35.8636C9.90911 35.8636 9.18184 35.9546 8.45456 36.2273C7.72729 36.5 7.18184 36.9546 6.72729 37.4091C6.27274 37.8636 6.00002 38.5 5.90911 39.0455C5.8182 39.6818 5.90911 40.3182 6.09093 40.8636C6.27274 41.3182 6.54547 41.6818 6.90911 42.0455C7.00002 42.2273 7.18183 42.3182 7.27274 42.4091C7.8182 42.7727 8.36365 42.9546 9.09093 42.9546H9.27274C9.90911 42.9546 10.5455 42.8636 11.1818 42.5909C11.2727 42.5 11.3637 42.5 11.4546 42.4091ZM6.72729 39.5909C6.8182 39.2273 7.09093 38.7727 7.54547 38.4091C7.90911 38.0455 8.45456 37.7727 9.00002 37.5C9.54547 37.2273 10.1818 37.1364 10.7273 37.0455H10.8182H10.9091C11.3637 37.0455 11.7273 37.1364 12.0909 37.3182C12.4546 37.5 12.7273 37.7727 12.9091 38.1364C13 38.3182 13 38.5 13 38.6818C13 38.7727 13 38.8636 13 38.9546C13 39.0455 13 39.1364 12.9091 39.2273C12.8182 39.4091 12.8182 39.5 12.7273 39.5909C12.5455 39.8636 12.3637 40.1364 12.1818 40.3182C12 40.5 11.8182 40.6818 11.5455 40.7727C11.2727 40.9546 11 41.0455 10.7273 41.2273C10.0909 41.5 9.54547 41.5909 9.00002 41.6818C8.45456 41.6818 8.00002 41.5909 7.63638 41.4091C7.45456 41.3182 7.27274 41.2273 7.18184 41.0455C7.09093 40.8636 6.90911 40.7727 6.8182 40.5909C6.54547 40.4091 6.54547 39.9546 6.72729 39.5909Z" fill="#231F20"/>
<path d="M11.8182 48.2273L11.5455 47.8636L16.3637 43.6818L16.6364 44.0454C16.7273 44.1363 16.8182 44.1363 16.9091 44.1363C16.9091 44.1363 16.9091 44.1363 17 44.1363C17.0909 44.1363 17.0909 44.1363 17.1818 44.0454C17.2728 43.9545 17.2728 43.8636 17.2728 43.7727C17.2728 43.6818 17.2728 43.6818 17.1818 43.5909L15.7273 41.9545C15.6364 41.8636 15.4546 41.7727 15.2728 41.9545C15.1818 42.0454 15.1818 42.1363 15.1818 42.2273V42.3182V42.4091L15.4546 42.7727L10.6364 46.9545L10.3637 46.5909C10.2728 46.5 10.1818 46.5 10.1818 46.5C10.0909 46.5 10 46.5 9.90912 46.5909C9.81821 46.6818 9.81821 46.7727 9.81821 46.8636C9.81821 46.9545 9.81821 47.0454 9.90912 47.0454L11.3637 48.6818C11.4546 48.7727 11.5455 48.7727 11.6364 48.7727C11.7273 48.7727 11.8182 48.7727 11.8182 48.6818C11.9091 48.5909 11.9091 48.5 11.9091 48.4091C11.9091 48.4091 11.9091 48.3182 11.8182 48.2273Z" fill="#231F20"/>
<path d="M28.6364 50.8636C28.4546 50.2273 28.1819 49.6818 27.7273 49.2273C27.2728 48.7727 26.7273 48.5 26.0909 48.4091C25.8182 48.3182 25.5455 48.3182 25.2728 48.3182C25 48.3182 24.7273 48.4091 24.5455 48.4091C24.0909 48.5909 23.6364 48.8636 23.1819 49.3182C23.0909 49.4091 23.0909 49.5909 23.1819 49.7727C23.1819 49.7727 23.2728 49.8636 23.3637 49.8636C23.4546 49.8636 23.4546 49.8636 23.4546 49.8636C23.5455 49.8636 23.6364 49.7727 23.7273 49.7727C24 49.4091 24.3637 49.2273 24.7273 49.0455C25 48.9545 25.3637 48.9545 25.6364 48.9545C25.7273 48.9545 25.7273 48.9545 25.8182 48.9545C26.1819 49.0454 26.5455 49.2273 26.8182 49.5909C27.0909 49.9545 27.2728 50.4091 27.3637 50.8636C27.4546 51.4091 27.4546 51.9545 27.3637 52.6818C27.2728 53.3182 27 53.8636 26.7273 54.3182C26.4546 54.7727 26.0909 55.1364 25.7273 55.3182C25.3637 55.5 25 55.5909 24.6364 55.5C24.0909 55.4091 23.7273 55.1364 23.4546 54.7727C23.1819 54.4091 23.0909 53.7727 23 53.0454C23 52.9545 23 52.9545 22.9091 52.8636C22.9091 52.7727 22.8182 52.7727 22.7273 52.6818H22.6364C22.5455 52.6818 22.5455 52.6818 22.4546 52.7727C22.4546 52.7727 22.4546 52.7727 22.4546 52.8636C22.4546 52.8636 22.4546 52.8636 22.4546 52.9545C22.4546 52.9545 22.4546 53.0454 22.3637 53.0454L22.0909 55.3182C22.0909 55.4091 22.0909 55.5 22.0909 55.5C22.1819 55.5909 22.1819 55.5909 22.2728 55.5909C22.2728 55.5909 22.2728 55.5909 22.3637 55.5909C22.3637 55.5909 22.3637 55.5909 22.4546 55.5909C22.5455 55.5909 22.5455 55.5 22.6364 55.4091L22.7273 55.2273C22.8182 55.3182 22.8182 55.3182 22.9091 55.3182C23 55.4091 23.1819 55.5 23.2728 55.5909C23.3637 55.5909 23.3637 55.6818 23.4546 55.6818C23.8182 55.8636 24.1819 56.0455 24.6364 56.1364C24.8182 56.1364 25 56.2273 25.2728 56.2273C25.6364 56.2273 26.0909 56.1364 26.4546 55.9545C26.9091 55.7727 27.2728 55.5 27.5455 55.1364C27.6364 55.0454 27.7273 54.8636 27.8182 54.7727C28.1819 54.2273 28.4546 53.5909 28.6364 52.8636C28.7273 52.2273 28.7273 51.6818 28.6364 51.1364C28.7273 51.1364 28.7273 50.9545 28.6364 50.8636Z" fill="#231F20"/>
<path d="M9.9091 14.6818L10.2727 14.3182L14.8182 18.8636L14.4546 19.2272C14.3636 19.3182 14.3636 19.4091 14.3636 19.5C14.3636 19.5909 14.3636 19.6818 14.4546 19.7727C14.5455 19.8636 14.6364 19.8636 14.7273 19.8636C14.8182 19.8636 14.9091 19.8636 15 19.7727L16.2727 18.4091C16.3636 18.3182 16.3636 18.2272 16.3636 18.1363C16.3636 18.0454 16.3636 17.9545 16.2727 17.8636C16.1818 17.7727 16.0909 17.7727 16 17.7727C15.9091 17.7727 15.8182 17.7727 15.7273 17.8636L15.2727 18.3182L11.6364 14.6818L18.6364 15.6818H18.7273C18.8182 15.6818 18.8182 15.6818 18.8182 15.6818L19.0909 15.4091V15.3182V15.2272L14.1818 10.3182L14.5455 9.95452C14.6364 9.86361 14.6364 9.7727 14.6364 9.68179C14.6364 9.59088 14.6364 9.49997 14.5455 9.40906C14.4546 9.31815 14.1818 9.31815 14.0909 9.40906L12.8182 10.7727C12.7273 10.9545 12.7273 11.0454 12.7273 11.1363C12.7273 11.2272 12.7273 11.3182 12.8182 11.4091C13 11.5909 13.1818 11.5909 13.2727 11.4091L13.7273 10.9545L17.0909 14.3182L10.5455 13.2272C10.4546 13.2272 10.4546 13.2272 10.4546 13.2272L9.45456 14.2272C9.36365 14.3182 9.36365 14.4091 9.36365 14.5C9.36365 14.5909 9.36365 14.6818 9.45456 14.7727C9.54547 14.7727 9.81819 14.7727 9.9091 14.6818Z" fill="#231F20"/>
<path d="M18 7.59089C18 7.6818 18.0909 7.6818 18.0909 7.6818C18.0909 7.6818 18.1818 7.6818 18.3637 7.6818L18.8182 7.49998L21.1818 13.4091L20.7273 13.5909C20.6364 13.5909 20.5455 13.6818 20.5455 13.7727C20.5455 13.8636 20.5455 13.9545 20.5455 13.9545C20.5455 14.0454 20.6364 14.0454 20.7273 14.1363H20.8182H20.9091L23.1818 13.2273C23.2728 13.2273 23.3637 13.1363 23.3637 13.0454C23.3637 12.9545 23.3637 12.8636 23.3637 12.7727C23.3637 12.6818 23.2728 12.5909 23.1818 12.5909C23.0909 12.5909 23 12.5909 22.9091 12.5909L22.1818 12.8636L20.9091 9.77271L22 9.31816C22.1818 9.22726 22.3637 9.22726 22.4546 9.22726C22.5455 9.22726 22.6364 9.31817 22.7273 9.40907C22.8182 9.49998 23 9.77271 23.0909 10.0454C23.0909 10.0454 23.1818 10.1363 23.2728 10.1363C23.3637 10.1363 23.4546 10.2273 23.5455 10.1363C23.6364 10.1363 23.7273 10.0454 23.7273 9.95453C23.7273 9.86362 23.7273 9.77271 23.7273 9.77271L22.7273 7.31817C22.7273 7.22726 22.6364 7.22726 22.6364 7.13635H22.5455C22.4546 7.13635 22.4546 7.13635 22.4546 7.13635L22.3637 7.22726C22.3637 7.22726 22.2728 7.22726 22.2728 7.31817C22.2728 7.40907 22.2728 7.40907 22.2728 7.49998C22.3637 7.77271 22.3637 8.04544 22.3637 8.13635C22.3637 8.22726 22.3637 8.31816 22.2728 8.40907C22.1818 8.6818 22 8.77271 21.8182 8.77271L20.7273 9.22726L20.6364 8.95453L19.9091 7.04544L21.6364 6.31817C22.0909 6.13635 22.4546 6.13635 22.8182 6.31817C23 6.40907 23.2728 6.59089 23.4546 6.86362C23.5455 6.95453 23.7273 7.04544 23.8182 6.95453C23.9091 6.95453 24 6.86362 24 6.77271C24 6.6818 24 6.6818 24 6.49998L23.1818 5.13635V5.04544C23.1818 4.95453 23.0909 4.95453 23 4.95453L18.0909 6.95453C18 6.95453 17.9091 7.04544 17.9091 7.13635C17.9091 7.40907 17.9091 7.49998 18 7.59089Z" fill="#231F20"/>
<path d="M34 56.0455C34 55.9545 34 55.8636 33.9091 55.8636V55.7727C33.8182 55.7727 33.8182 55.6818 33.6363 55.6818L33.1818 55.7727L32.5454 49.4091L33 49.3182C33.0909 49.3182 33.1818 49.2273 33.2727 49.2273C33.2727 49.2273 33.3636 49.1364 33.3636 48.9546C33.3636 48.8636 33.2727 48.7727 33.2727 48.7727C33.2727 48.7727 33.1818 48.6818 33.0909 48.6818L30.9091 48.8636C30.8182 48.8636 30.7273 48.9546 30.7273 48.9546C30.7273 49.0455 30.6364 49.0455 30.6364 49.1364C30.6364 49.2273 30.7273 49.3182 30.7273 49.3182C30.8182 49.4091 30.9091 49.4091 31 49.4091L31.4545 49.3182L32.0909 55.6818L31.6364 55.7727C31.5454 55.7727 31.4545 55.8636 31.4545 55.8636C31.3636 55.9546 31.3636 56.0455 31.3636 56.1364C31.3636 56.1364 31.3636 56.3182 31.4545 56.3182C31.5454 56.4091 31.5454 56.4091 31.7273 56.4091L33.9091 56.2273C33.9091 56.2273 34 56.2273 34.0909 56.1364C34 56.2273 34 56.1364 34 56.0455C34 56.1364 34 56.1364 34 56.0455Z" fill="#231F20"/>
<path d="M36.8182 11.6818C36.9091 11.5909 36.9091 11.5 36.9091 11.5C36.9091 11.4091 36.9091 11.3181 36.8182 11.3181C36.7273 11.2272 36.6364 11.2272 36.5455 11.2272H36.4546C36.4546 11.2272 36.3637 11.2272 36.3637 11.3181C36.3637 11.3181 36.3637 11.3181 36.2728 11.3181C36 11.6818 35.6364 11.8636 35.2728 12.0454C34.9091 12.1363 34.5455 12.2272 34.1818 12.1363C33.8182 12.0454 33.4546 11.8636 33.1818 11.5C32.9091 11.1363 32.7273 10.6818 32.6364 10.2272C32.5455 9.68178 32.5455 9.13633 32.6364 8.40906C32.7273 7.8636 32.9091 7.31815 33.1818 6.8636C33.1818 6.8636 33.1818 6.77269 33.2728 6.77269C33.5455 6.31815 33.9091 5.95451 34.2728 5.77269C34.2728 5.77269 34.3637 5.77269 34.3637 5.68178C34.4546 5.59088 34.5455 5.59088 34.7273 5.59088C34.8182 5.59088 34.9091 5.59088 34.9091 5.59088C35 5.59088 35.0909 5.59088 35.1818 5.59088C35.2728 5.59088 35.2728 5.59088 35.3637 5.59088C35.9091 5.68178 36.2728 5.95451 36.5455 6.31815C36.8182 6.68178 36.9091 7.31815 37 8.04542C37 8.13633 37 8.13633 37.0909 8.22724C37.0909 8.31815 37.1818 8.31815 37.2728 8.40906H37.3637C37.3637 8.40906 37.3637 8.40906 37.4546 8.40906H37.5455C37.5455 8.40906 37.5455 8.40906 37.5455 8.31815L37.6364 8.22724L37.9091 5.95451C37.9091 5.8636 37.9091 5.77269 37.9091 5.77269C37.8182 5.68178 37.8182 5.68178 37.7273 5.68178C37.6364 5.68178 37.5455 5.77269 37.4546 5.8636L37.2728 5.68178C37.1818 5.59088 37.1818 5.59088 37.0909 5.59088C37 5.49997 36.8182 5.40906 36.7273 5.31815C36.6364 5.31815 36.6364 5.22724 36.5455 5.22724C36.1818 5.04542 35.8182 4.8636 35.3637 4.77269C34.7273 4.68178 34.0909 4.68178 33.5455 4.95451C33.1818 5.04542 32.7273 5.31815 32.4546 5.68178C32.3637 5.77269 32.2728 5.95451 32.0909 6.04542C31.7273 6.59088 31.4546 7.22724 31.2728 7.95451C31.0909 8.68178 31.1818 9.40906 31.2728 10.0454C31.4546 10.6818 31.7273 11.2272 32.1818 11.6818C32.6364 12.1363 33.1818 12.4091 33.8182 12.5C34 12.5 34.2728 12.5909 34.4546 12.5909C34.7273 12.5909 34.9091 12.5909 35.1818 12.5C35.2728 12.5 35.2728 12.5 35.3637 12.5C36 12.4091 36.3637 12.0454 36.8182 11.6818Z" fill="#231F20"/>
<path d="M42.0909 53.409C42.0909 53.3181 42 53.3181 42 53.2272C42 53.2272 41.9091 53.2272 41.7273 53.2272L41.2727 53.409L38.9091 47.4999L39.3636 47.3181C39.4545 47.3181 39.5454 47.2272 39.5454 47.1363C39.5454 47.1363 39.5454 47.1363 39.5454 47.0454C39.5454 47.0454 39.5454 47.0454 39.5454 46.9545V46.8636C39.5454 46.7727 39.4545 46.6818 39.3636 46.6818C39.2727 46.6818 39.1818 46.6818 39.0909 46.6818L36.8182 47.5909C36.7273 47.5909 36.6364 47.6818 36.6364 47.7727C36.6364 47.8636 36.6364 47.9545 36.6364 48.0454C36.6364 48.1363 36.7273 48.2272 36.8182 48.2272C36.9091 48.2272 37 48.2272 37.0909 48.2272L37.8182 47.9545L39.0909 51.0454L38 51.4999C37.8182 51.5909 37.6364 51.5909 37.5454 51.5909C37.4545 51.5909 37.3636 51.4999 37.2727 51.409C37.1818 51.3181 37.1818 51.2272 37.0909 51.1363C37 51.0454 37 50.9545 36.9091 50.8636C36.9091 50.8636 36.9091 50.7727 36.8182 50.7727C36.8182 50.7727 36.7273 50.6818 36.6364 50.6818C36.5454 50.6818 36.4545 50.6818 36.3636 50.6818C36.3636 50.6818 36.3636 50.7727 36.2727 50.7727C36.2727 50.7727 36.2727 50.7727 36.1818 50.8636C36.1818 50.8636 36.0909 50.8636 36.0909 50.9545C36.0909 51.0454 36.0909 51.1363 36.0909 51.2272L37.0909 53.6818C37.0909 53.7727 37.1818 53.7727 37.1818 53.8636C37.2727 53.9545 37.3636 53.8636 37.4545 53.8636C37.5454 53.8636 37.5454 53.7727 37.6364 53.6818V53.5909C37.6364 53.5909 37.6364 53.5909 37.6364 53.4999C37.6364 53.4999 37.6364 53.4999 37.6364 53.409C37.5454 53.1363 37.5454 52.8636 37.5454 52.7727C37.5454 52.6818 37.5454 52.5909 37.6364 52.4999C37.7273 52.409 37.8182 52.3181 38 52.2272L39.0909 51.7727L40 53.9545L38.1818 54.6818C37.7273 54.8636 37.3636 54.8636 37 54.6818C36.8182 54.5909 36.5454 54.3181 36.3636 54.1363C36.2727 54.0454 36.0909 53.9545 36 54.0454C35.9091 54.0454 35.8182 54.1363 35.8182 54.2272C35.8182 54.3181 35.8182 54.3181 35.8182 54.4999L36.6364 55.8636L36.7273 55.9545C36.7273 55.9545 36.7273 55.9545 36.8182 55.9545L41.7273 53.9545L41.8182 53.8636C41.8182 53.8636 41.9091 53.8636 41.9091 53.7727C42.0909 53.5909 42.0909 53.5909 42.0909 53.409C42.0909 53.4999 42.0909 53.4999 42.0909 53.409Z" fill="#231F20"/>
<path d="M50.5455 46.3182C50.3637 46.1364 50.1818 46.1364 50.0909 46.3182L49.7273 46.6818L45.1818 42.1364L45.5455 41.7727C45.6364 41.6818 45.6364 41.5909 45.6364 41.5C45.6364 41.4091 45.6364 41.3182 45.5455 41.2273C45.4546 41.1364 45.3637 41.1364 45.2728 41.1364C45.1818 41.1364 45.0909 41.1364 45 41.2273L43.6364 42.5909C43.5455 42.6818 43.5455 42.7727 43.5455 42.8636C43.5455 42.9545 43.5455 43.0454 43.6364 43.1364C43.7273 43.2273 44 43.2273 44.0909 43.1364L44.5455 42.6818L48.1818 46.3182L41.1818 45.3182H41.0909L40.9091 45.5909V45.6818V45.7727L45.8182 50.6818L45.4546 50.9545C45.3637 51.0454 45.3637 51.1364 45.3637 51.2273C45.3637 51.3182 45.3637 51.4091 45.4546 51.5C45.5455 51.5909 45.6364 51.5909 45.7273 51.5909C45.8182 51.5909 45.9091 51.5909 46 51.5L47.3637 50.1363C47.4546 50.0454 47.4546 49.9545 47.4546 49.8636C47.4546 49.7727 47.4546 49.6818 47.3637 49.5909C47.0909 49.5909 47 49.5909 47 49.5909C46.9091 49.5909 46.8182 49.5909 46.7273 49.6818L46.2728 50.1363L42.9091 46.7727L49.4546 47.8636H49.5455H49.6364L50.6364 46.8636C50.7273 46.7727 50.7273 46.6818 50.7273 46.5909C50.6364 46.5 50.6364 46.4091 50.5455 46.3182Z" fill="#231F20"/>
<path d="M38.7273 14.2273L40.7273 15.5C40.8182 15.5 40.8182 15.5909 40.9091 15.5909H41C41.0909 15.5909 41.1818 15.5 41.1818 15.4091C41.1818 15.3182 41.1818 15.3182 41.1818 15.2273C41.1818 15.1363 41.0909 15.1363 41.0909 15.0454L40.6364 14.7727L44.0909 9.40907L44.9091 9.95452C45.0909 10.0454 45.2727 10.2273 45.3636 10.3182C45.4545 10.4091 45.4545 10.5 45.4545 10.6818C45.4545 10.8636 45.3636 11.1363 45.2727 11.5C45.2727 11.6818 45.3636 11.7727 45.4545 11.8636C45.4545 11.8636 45.5454 11.9545 45.6364 11.8636C45.7273 11.8636 45.8182 11.7727 45.8182 11.6818C45.8182 11.6818 45.9091 11.5909 45.9091 11.5L46 11.2273L46.4545 10.2273V10.1363C46.4545 10.0454 46.4545 10.0454 46.3636 9.95452L41.4545 6.77271C41.3636 6.77271 41.3636 6.77271 41.2727 6.77271L40.2727 7.7727C40.1818 7.7727 40.1818 7.86361 40.1818 7.95452C40.0909 8.04543 40.0909 8.13634 40.0909 8.22725C40.0909 8.31816 40.1818 8.40907 40.1818 8.40907C40.2727 8.49998 40.3636 8.49998 40.6364 8.40907C41 8.13634 41.1818 7.95452 41.2727 7.95452C41.3636 7.86361 41.5454 7.86361 41.6364 7.86361C41.7273 7.86361 41.9091 7.95452 42.1818 8.04543L43 8.59089L39.5454 13.9545L39.0909 13.6818C39 13.6818 38.9091 13.5909 38.8182 13.6818C38.8182 13.6818 38.7273 13.6818 38.6364 13.8636C38.6364 13.9545 38.5454 14.0454 38.6364 14.1363C38.6364 14.1363 38.6363 14.2273 38.7273 14.2273Z" fill="#231F20"/>
<path d="M30 0.772705C13.6364 0.772705 0.363647 14.1363 0.363647 30.5C0.363647 46.8636 13.6364 60.2273 30 60.2273C46.3636 60.2273 59.7273 46.8636 59.7273 30.5C59.7273 14.1363 46.3636 0.772705 30 0.772705ZM30 59.5C14 59.5 1.00001 46.5 1.00001 30.5C1.00001 14.5 14 1.49998 30 1.49998C46 1.49998 59 14.5 59 30.5C59 46.5 46 59.5 30 59.5Z" fill="#231F20"/>
<path d="M6.63638 23.9545C7.09092 24.5 7.72729 24.8636 8.36365 25.1364C9.00001 25.4091 9.54547 25.5 10.1818 25.5C10.2727 25.5 10.3636 25.5 10.4546 25.5C11.0909 25.4091 11.7273 25.2273 12.2727 24.8636L12.3637 24.7727C12.5455 24.5909 12.7273 24.5 12.9091 24.3182L13 24.2273C13.1818 24.0455 13.2727 23.8636 13.3636 23.5909C13.3636 23.5 13.4546 23.5 13.4546 23.5C13.7273 22.8636 13.7273 22.3182 13.6364 21.6818C13.5455 21.0455 13.1818 20.5 12.7273 20.0455C12.5455 19.7727 12.2727 19.5909 12 19.4091C11.7273 19.2273 11.3636 19.0455 11.0909 18.9545C10.3636 18.6818 9.63638 18.5 9.00001 18.5909C8.36365 18.5909 7.72729 18.8636 7.18183 19.1364C6.63638 19.5 6.27274 19.9545 6.00001 20.5909C5.72729 21.2273 5.72729 21.7727 5.8182 22.4091C5.9091 22.8636 6.18183 23.4091 6.63638 23.9545ZM6.54547 20.6818C6.72729 20.3182 6.9091 20.0455 7.27274 19.8636C7.72729 19.5909 8.18183 19.5 8.72729 19.5909C9.27274 19.5909 9.8182 19.7727 10.4546 19.9545H10.5455C11.0909 20.2273 11.5455 20.5 11.9091 20.7727C11.9091 20.7727 11.9091 20.7727 12 20.7727C12.3636 21.1364 12.6364 21.5 12.8182 21.8636C12.8182 21.9545 12.9091 22.1364 12.9091 22.2273C12.9091 22.5 12.9091 22.7727 12.8182 23.0455C12.6364 23.4091 12.3636 23.6818 12 23.8636C11.6364 24.0455 11.1818 24.1364 10.6364 24.1364C10.0909 24.1364 9.54547 23.9545 8.9091 23.7727C8.54547 23.6818 8.27274 23.5 8.00001 23.3182C7.72729 23.1364 7.54547 23.0455 7.36365 22.8636C7.00001 22.5 6.72729 22.1364 6.54547 21.7727C6.45456 21.4091 6.45456 21.0455 6.54547 20.6818Z" fill="#231F20"/>
<path d="M29.3637 11.4091H29.2728H29.1818H28.6364L28 5.04542L28.4546 4.95451C28.5455 4.95451 28.6364 4.8636 28.6364 4.8636C28.6364 4.77269 28.7273 4.77269 28.7273 4.68178C28.7273 4.68178 28.7273 4.59088 28.6364 4.49997C28.6364 4.49997 28.6364 4.49997 28.5455 4.49997C28.4546 4.49997 28.4546 4.40906 28.3637 4.40906L26.1818 4.59088C26.1818 4.59088 26.0909 4.59088 26 4.68178C25.9091 4.77269 25.9091 4.8636 25.9091 4.8636C25.9091 4.95451 26 5.04542 26 5.04542C26 5.04542 26 5.04542 26.0909 5.04542C26.1818 5.04542 26.1818 5.13633 26.2728 5.04542L26.7273 4.95451L27.3637 11.3181L26.9091 11.4091C26.8182 11.4091 26.7273 11.5 26.6364 11.5C26.6364 11.5 26.5455 11.5909 26.5455 11.7727C26.5455 11.8636 26.6364 11.9545 26.6364 11.9545C26.6364 11.9545 26.7273 12.0454 26.8182 12.0454L29 11.8636C29.0909 11.8636 29.1818 11.7727 29.1818 11.7727C29.2728 11.6818 29.2728 11.5909 29.2728 11.5C29.4546 11.5 29.4546 11.5 29.3637 11.4091Z" fill="#231F20"/>
<path d="M48.4546 13.0454L43.6364 17.2272L43.4546 17.0454L43.2727 16.8636L43.1818 16.7727H43.0909C43 16.7727 42.9091 16.7727 42.8182 16.8636C42.7273 16.9545 42.7273 17.0454 42.7273 17.1363C42.7273 17.2272 42.7273 17.3181 42.8182 17.3181L44.2728 18.9545C44.2728 18.9545 44.2727 18.9545 44.3637 19.0454H44.4546C44.5455 19.0454 44.6364 19.0454 44.6364 18.9545C44.7273 18.8636 44.7273 18.7727 44.7273 18.6818C44.7273 18.5909 44.7273 18.5 44.6364 18.5L44.3637 18.1363L44.9091 17.6818L49.1818 13.9545L49.2728 14.0454L49.4546 14.2272C49.4546 14.2272 49.4546 14.2272 49.5455 14.3181H49.6364C49.7273 14.3181 49.8182 14.3181 49.9091 14.2272C50 14.1363 50 14.0454 50 13.9545C50 13.8636 50 13.7727 49.9091 13.7727L48.6364 12.3181C48.5455 12.2272 48.4546 12.2272 48.3637 12.2272C48.2728 12.2272 48.1818 12.2272 48.1818 12.3181C48.1818 12.3181 48.0909 12.4091 48.0909 12.5C48.0909 12.5 48.0909 12.5 48.0909 12.5909C48.0909 12.5909 48.0909 12.6818 48.1818 12.7727L48.4546 13.0454Z" fill="#231F20"/>
<path d="M50.4545 18.0454C49.9091 18.0454 49.4545 18.2272 48.9091 18.409C48.1818 18.6818 47.5454 19.1363 47.0909 19.5909C46.6364 20.0454 46.3636 20.6818 46.2727 21.2272C46.1818 21.8636 46.2727 22.5 46.4545 23.0454C46.7273 23.6818 47.0909 24.1363 47.6364 24.5C48.1818 24.8636 48.7273 25.0454 49.4545 25.0454H49.6364C50.2727 25.0454 50.9091 24.8636 51.5455 24.5909C52.2727 24.3181 52.8182 23.8636 53.2727 23.409C53.4545 23.2272 53.5454 23.0454 53.7273 22.7727C53.7273 22.6818 53.8182 22.6818 53.8182 22.5909C54 22.3181 54.0909 22.0454 54.0909 21.6818C54.1818 21.0454 54.0909 20.409 53.9091 19.8636C53.6364 19.2272 53.2727 18.7727 52.7273 18.409C52.1818 18.0454 51.6364 17.8636 50.9091 17.8636H50.8182C50.6364 18.0454 50.5454 18.0454 50.4545 18.0454ZM52.4545 19.409C52.8182 19.5909 53.0909 19.8636 53.2727 20.2272C53.4545 20.5909 53.4545 20.9545 53.2727 21.409C53.1818 21.7727 52.9091 22.2272 52.4545 22.5909C52.0909 22.9545 51.5454 23.2272 50.9091 23.5C50.3636 23.7727 49.7273 23.8636 49.1818 23.9545C48.7273 23.9545 48.3636 23.9545 48.0909 23.7727C48 23.7727 47.9091 23.7727 47.9091 23.6818C47.5455 23.5 47.2727 23.2272 47.0909 22.8636C46.9091 22.5 46.9091 22.1363 47.0909 21.6818C47.2727 21.2272 47.4545 20.8636 47.9091 20.5C48.2727 20.1363 48.8182 19.8636 49.4545 19.5909C50.0909 19.3181 50.6364 19.2272 51.1818 19.1363C51.6364 19.1363 52.0909 19.2272 52.4545 19.409Z" fill="#231F20"/>
<path d="M48.8182 27.6818V27.2272C48.8182 27.1363 48.7273 27.0454 48.7273 26.9545C48.7273 26.9545 48.6364 26.8636 48.4545 26.8636C48.3636 26.8636 48.2727 26.8636 48.2727 26.9545C48.1818 27.0454 48.1818 27.1363 48.1818 27.2272V29.1363C48.1818 29.2272 48.1818 29.3181 48.2727 29.3181C48.3636 29.409 48.4545 29.409 48.5455 29.409C48.6364 29.409 48.7273 29.409 48.7273 29.3181C48.8182 29.2272 48.8182 29.2272 48.8182 29.0454V28.409L53.9091 28.4999L48.0909 32.5909L48 32.6818V33.1363V33.2272H48.0909L55 33.409V33.8636C55 33.9545 55 34.0454 55.0909 34.0454C55.1818 34.1363 55.2727 34.1363 55.3636 34.1363C55.4545 34.1363 55.5455 34.1363 55.6364 34.0454C55.7273 33.9545 55.7273 33.9545 55.7273 33.7727V31.8636C55.7273 31.7727 55.7273 31.6818 55.6364 31.5909L55.5455 31.4999H55.4545C55.3636 31.4999 55.2727 31.5 55.2727 31.5909C55.1818 31.6818 55.1818 31.7727 55.1818 31.8636V32.5L50.4545 32.409L55.9091 28.6818L56 28.5909V27.2272V27.1363C56 27.0454 55.9091 27.0454 55.9091 26.9545L55.8182 26.8636H55.7273C55.5455 26.8636 55.3636 26.9545 55.3636 27.2272V27.6818H48.8182Z" fill="#231F20"/>
<path d="M53.3636 37.0455C52.9091 36.5 52.2727 36.1364 51.6364 35.8636C51 35.5909 50.4545 35.5 49.8182 35.5C49.7273 35.5 49.6364 35.5 49.5455 35.5C48.9091 35.5909 48.2727 35.7727 47.7273 36.1364L47.6364 36.2273C47.4545 36.4091 47.2727 36.5 47.0909 36.6818L47 36.7727C46.8182 36.9545 46.7273 37.1364 46.6364 37.4091L46.5455 37.5C46.2727 38.1364 46.2727 38.6818 46.3636 39.3182C46.4545 39.9545 46.8182 40.5 47.2727 40.9545C47.7273 41.4091 48.2727 41.8636 49 42.1364C49.6364 42.4091 50.1818 42.5 50.8182 42.5C50.9091 42.5 51 42.5 51.0909 42.5C51.7273 42.5 52.3636 42.2273 52.9091 41.9545C53.4545 41.5909 53.8182 41.1364 54.0909 40.5C54.3636 39.8636 54.3636 39.3182 54.2727 38.6818C54.0909 38.1364 53.8182 37.5909 53.3636 37.0455ZM52.6364 41.1364C52.2727 41.4091 51.8182 41.5 51.2727 41.4091C50.7273 41.4091 50.1818 41.2273 49.5455 41.0455C48.9091 40.7727 48.4545 40.5 48 40.1364C47.6364 39.7727 47.3636 39.4091 47.1818 39.0455C47.0909 38.6818 47.0909 38.3182 47.1818 37.8636C47.1818 37.7727 47.2727 37.6818 47.3636 37.5909C47.5455 37.3182 47.7273 37.1364 48 37.0455C48.3636 36.8636 48.7273 36.7727 49.2727 36.7727H49.4545C50 36.7727 50.5455 36.9545 51.1818 37.1364C51.8182 37.4091 52.2727 37.6818 52.7273 38.0455C52.8182 38.1364 52.8182 38.1364 52.9091 38.2273C53 38.3182 53 38.3182 53.0909 38.4091C53.1818 38.5 53.2727 38.6818 53.3636 38.8636C53.3636 38.8636 53.3636 38.9545 53.4545 38.9545C53.4545 39.0455 53.5455 39.1364 53.5455 39.2273C53.6364 39.5909 53.6364 39.9545 53.5455 40.4091C53.5455 40.5 53.4545 40.5909 53.3636 40.6818C53.0909 40.8636 52.9091 41.0455 52.6364 41.1364Z" fill="#231F20"/>
<path d="M21.3637 46.8636L21.2727 46.7727L19.2727 45.5C19.1818 45.5 19.0909 45.4091 19 45.5C18.9091 45.5 18.8182 45.5909 18.8182 45.6818C18.8182 45.7727 18.7273 45.8636 18.8182 45.9545C18.8182 46.0455 18.9091 46.1364 19 46.1364L19.4546 46.4091L16 51.7727L15.1818 51.2273C15.0909 51.2273 15.0909 51.1364 15 51.1364C14.8182 51.0455 14.8182 50.9545 14.7273 50.8636C14.7273 50.8636 14.7273 50.7727 14.7273 50.6818C14.7273 50.5909 14.6364 50.5909 14.7273 50.5C14.7273 50.4091 14.7273 50.3182 14.8182 50.2273V50.1364C14.8182 50.0455 14.9091 49.8636 14.9091 49.6818C14.9091 49.5909 14.9091 49.5 14.9091 49.4091C14.9091 49.3182 14.8182 49.3182 14.8182 49.3182H14.7273H14.6364C14.5455 49.3182 14.4546 49.4091 14.4546 49.5C14.4546 49.5 14.3637 49.5909 14.3637 49.6818L13.6364 50.7727V50.8636V50.9545C13.6364 50.9545 13.6364 51.0455 13.7273 51.0455L18.6364 54.2273H18.7273H18.8182L19.8182 53.2273C19.9091 53.2273 19.9091 53.1364 19.9091 53.0455V52.9545C19.9091 52.8636 19.9091 52.8636 19.9091 52.7727C19.9091 52.6818 19.8182 52.6818 19.8182 52.5909C19.7273 52.5 19.6364 52.5 19.3637 52.5909C19.0909 52.7727 18.9091 52.9545 18.7273 53.0455C18.6364 53.1364 18.4546 53.1364 18.3637 53.1364C18.2727 53.1364 18.0909 53.0455 17.8182 52.9545L17 52.4091L20.4546 47.0455L20.9091 47.3182C21 47.3182 21.0909 47.4091 21.1818 47.3182C21.1818 47.3182 21.2727 47.3182 21.3637 47.1364C21.3637 47.0455 21.4546 46.9545 21.3637 46.8636C21.3637 46.9545 21.4546 46.9545 21.3637 46.8636Z" fill="#231F20"/>
</svg>
